# xmcd CD database file
# Copyright (C) 1993-1998 Ti Kan
#
# Track frame offsets:
# 197
# 28792
# 51852
# 81260
# 100047
# 125612
# 147307
# 177887
# 199280
# 221647
#
# Disc length: 3316 seconds
# Revision: 0
# Processed by: cddbd v1.4b41PL1 Copyright (c) Steve Scherf et al.
# Submitted via: CDSpectrumPro v3.3.335
#
DISCID=920cf20a
DTITLE=Tommy Flanagan - Jazz Poet
DYEAR=1900
DGENRE=
TTITLE0=Caravan
TTITLE1=Lament
TTITLE2=St. Louis Blues
TTITLE3=Mean Streets
TTITLE4=I'm Old Fashioned
TTITLE5=Voce a Buso
TTITLE6=That Tired Routine Called Love
TTITLE7=Glad To Be Unhappy
TTITLE8=Raincheck
TTITLE9=Willow Weep For Me
EXTD=W- George Mras, bass     \n      Kenny Washington, drums  \n.
EXTT0=\n
EXTT1=
EXTT2=
EXTT3=
EXTT4=
EXTT5=
EXTT6=
EXTT7=
EXTT8=
EXTT9=
PLAYORDER=
